<?xml version="1.0" encoding="UTF-8" standalone="no"?>
<svg width="447px" height="446px" viewBox="0 0 447 446" version="1.1" xmlns="http://www.w3.org/2000/svg" xmlns:xlink="http://www.w3.org/1999/xlink" xmlns:sketch="http://www.bohemiancoding.com/sketch/ns">
    <title>Slice 1</title>
    <description>Created with Sketch (http://www.bohemiancoding.com/sketch)</description>
    <defs></defs>
    <g id="Page 1" fill="#D8D8D8" fill-rule="evenodd">
        <g id="Search" fill="#000000">
            <path d="M440.704,375.906 L438.013,373.217 L438.019,373.215 L330.505,265.692 C345.443,239.959 354.121,210.127 354.325,178.241 C354.951,80.626 276.335,0.998 178.726,0.384 C178.332,0.383 177.951,0.382 177.558,0.382 C80.498,0.387 1.491,78.774 0.866,175.98 C0.248,273.589 78.865,353.216 176.463,353.839 C176.852,353.841 177.229,353.843 177.618,353.843 C210.06,353.843 240.464,345.053 266.616,329.768 L374.035,437.2 L374.045,437.19 L376.731,439.876 C384.856,448 398.024,447.993 406.145,439.876 L440.705,405.322 C448.82,397.205 448.826,384.029 440.704,375.906 L440.704,375.906 Z M176.748,308.771 C104.159,308.305 45.477,248.864 45.935,176.269 C46.4,104.14 105.45,45.457 177.561,45.453 L178.441,45.455 C213.608,45.675 246.585,59.579 271.292,84.603 C295.997,109.628 309.48,142.781 309.254,177.955 C309.032,212.97 295.227,245.848 270.387,270.519 C245.553,295.189 212.607,308.771 177.619,308.771 L176.748,308.771 L176.748,308.771 Z M176.748,308.771" id="Shape" fill="#666666"></path>
        </g>
    </g>
</svg>